<?xml version="1.0" encoding="UTF-8"?>
<svg id="Layer_2" data-name="Layer 2" xmlns="http://www.w3.org/2000/svg" viewBox="0 0 228.18 168.31">
  <defs>
    <style>
      .cls-1 {
        fill: #fcf9f2;
      }

      .cls-1, .cls-2, .cls-3, .cls-4, .cls-5, .cls-6, .cls-7, .cls-8, .cls-9, .cls-10, .cls-11, .cls-12, .cls-13 {
        stroke: #000;
        stroke-miterlimit: 10;
        stroke-width: .25px;
      }

      .cls-2 {
        fill: #2491a7;
      }

      .cls-3 {
        fill: #b05449;
      }

      .cls-4 {
        fill: #dc7161;
      }

      .cls-5 {
        fill: #6ea9ad;
      }

      .cls-6 {
        fill: #0d2735;
      }

      .cls-7 {
        fill: #3f322f;
      }

      .cls-8 {
        fill: #151e26;
      }

      .cls-9 {
        fill: #96b8b8;
      }

      .cls-10 {
        fill: #9f4840;
      }

      .cls-11 {
        fill: #559aa6;
      }

      .cls-12 {
        fill: #2b353d;
      }

      .cls-13 {
        fill: #f9ab98;
      }
    </style>
  </defs>
  <g id="Layer_1-2" data-name="Layer 1">
    <g>
      <path id="RealPath" class="cls-1" d="M221.96,112.78h-41.94c-.06-1.52,2.21-4.27,3.71-6.92,3.11-5.52,6.72-10.81,9.88-16.31,4.62-8.03,9.36-16.11,13.84-24.21,6.09-11.02,12.47-21.92,17.79-33.35l-.25-31.87q-59.29.49-118.59.99c-8.03,10.51-21.58,56.83-23.47,60.04-1.48,2.51-3.81,2.87-6.18,1.24-4.4-3.04-15.97-51.15-18.04-55.59-1.22-2.62-3.77-5.15-6.67-5.68C46.74.14,11.25,1.84.16,1.11c5.44,24.43,12.52,48.59,19.52,72.64,4.8,16.51,10.27,32.96,15.32,49.41,6.11,19.92,3.33,25.16,9.39,32.12,10.64,12.22,28.13,12.74,32.91,12.88,19.62.59,33.59-9.79,37.99-13.38h99.81c1.4-.61,1.62-13.91,1.73-16.31.76-16.42-3.56-17.15,7.91-16.31,1.15-.27,2.62.78,3.31-1.56l-6.08-7.83Z"/>
      <g>
        <path class="cls-9" d="M51.93,28.95c-3.17-.15-6.33-.35-9.5-.5-6.43-17.93-14.43-23.48-.25-15.5,5.7,3.47,6.84,10.44,9.75,16Z"/>
        <g>
          <path class="cls-3" d="M42.43,28.45c8.83,24.6,20.83,72.37,27,99.24,1.98-1.81,2.19-4.97,3-7.25,10.67-30.09,18.96-61.04,28.5-91.49,1.09,4.31,2.97,11.17,6.5,14-.26,1.34-.75,2.66-1,4-2.63,14.27-4.94,28.88-7,43.25-1.66,11.57-1.83,23.8-3.5,35.25-.32,2.2-.57,3.68-.86,5.09-.98,4.75-2.38,12.71-4.14,16.41-5.95,12.51-33.46,15.29-38.7,7.84-1.34-1.91-3.77-8.12-4.05-8.84-.98-2.52-1.6-4.45-1.74-4.93-1.21-4.18-1.37-7.15-2.51-11.07-.24-24.61-15.03-80.34-24.5-101.99,7.68-.18,15.33.13,23,.5Z"/>
          <path class="cls-6" d="M194.42,46.78h11.5c-13.25,25.78-28.34,50.57-43.5,75.25l44.75.25q-.25,12.25-.5,24.5h-90.5c-1.44-.83,11.2-22.13,12.25-24q6.25-.38,12.5-.75c10.5-16.94,20.71-34.16,32.5-50.25,3.81-5.2,15.54-20.49,19-24.25,1.1-1.19,1.91-.66,2-.75Z"/>
          <path class="cls-11" d="M209.92,7.95q-4.87,10-9.75,20c-4.42.03-8.83-.04-13.25,0-11.02.11-22-.78-33-1,.15-8.25-1.38-14.07-9.5-17.5.06-.11-.25-.82.75-1.5,21.58-.08,43.16.11,64.75,0Z"/>
          <path class="cls-5" d="M207.92,31.95c-4.3,5-8.98,9.7-13.5,14.5-.09.09-.9-.44-2,.75-3.46,3.76-15.19,19.05-19,24.25l-18.5,6c5.37-9.1,13.78-25.98,18-32.5,1.21-1.87,4.76-6.96,6-8.5,1.32-1.64,3.06-3,4.5-4.5,7.03-.52,18.57.7,24.5,0Z"/>
          <path class="cls-13" d="M51.93,28.95c.85.04,1.24-.05,2,.5,9.04,29.6,13.52,60.45,18.5,90.99-.81,2.28-1.02,5.44-3,7.25-6.17-26.87-18.17-74.65-27-99.24,3.17.15,6.33.35,9.5.5Z"/>
          <path class="cls-13" d="M133.92,28.45c-7.91,23.41-27.15,108.14-31,116.49-6.34-6.78,1.52-26.03,4.5-38.5,2.43-10.17,5.22-20.3,7.5-30.5,3.52-15.75,6.54-31.54,9-47.5,3.24.01,6.73-1.43,10,0Z"/>
          <path class="cls-6" d="M19.43,27.95c9.47,21.66,24.26,77.38,24.5,101.99C32.18,89.59,19.79,49.37,7.43,9.2l.5-1.25c3.84,6.68,8.39,12.89,11.5,20Z"/>
          <path class="cls-2" d="M173.42,71.45c-11.79,16.09-22,33.3-32.5,50.25q-6.25.37-12.5.75c8.54-15.15,17.65-30.03,26.5-45l18.5-6Z"/>
          <path class="cls-11" d="M53.93,29.45c-.76-.55-1.15-.46-2-.5-2.91-5.56-4.05-12.53-9.75-16-14.18-7.98-6.18-2.43.25,15.5-7.67-.37-15.32-.68-23-.5-3.11-7.11-7.65-13.32-11.5-20,43.6.71,37.91-5,46,21.5Z"/>
          <path class="cls-5" d="M133.92,28.45c-3.27-1.43-6.76.01-10,0-4.02-.01-7.99,0-12,0-.06,0,.32-.5-1-.5-3.17,0-6.33,0-9.5,0,2.4-6.65,5.01-13.2,8.25-19.5,6.42.02,12.83-.03,19.25,0,.26,3.23-6.19,18.25-3.25,19,4.5,1.15,4.42-10.73,8.25-19,3.38.09,8.95-.46,9,.25-4.66,5.64-6.69,12.92-9,19.75Z"/>
          <path class="cls-9" d="M214.42,29.95c-2.26.36-4.21,1.73-6.5,2-5.93.7-17.47-.52-24.5,0,1.2-1.25,2.38-2.66,3.5-4,4.42-.04,8.83.03,13.25,0q4.87-10,9.75-20c.3,0,3.89-1.19,6-.25-.12,7.51.67,14.95-1.5,22.25Z"/>
          <path class="cls-6" d="M52.18,154.44q24.37.37,48.75.75c-10.08,8.36-41.14,11.31-48.75-.75Z"/>
          <path class="cls-6" d="M107.43,106.44c-2.98,12.47-10.84,31.72-4.5,38.5-.11.25-.72,8.49-1.7,9.84-4.79,6.64-18.66,7.25-34,0,3-.61,16.36-3.66,24-16,3.11-5.02,4.25-9.94,4.7-13.34,1.31-.37,1.44-.95,2-2,2.99-5.6,5.85-12.41,9.5-17Z"/>
          <g>
            <path class="cls-8" d="M178.92,36.29c-1.24,1.54-4.79,6.63-6,8.5h-30.75l-.25-8.25q18.5-.12,37-.25Z"/>
            <path class="cls-6" d="M153.92,26.95c-1.72-.03-11.74,1.31-12.5.25.49-3.81,1.78-15.57,3-17.75,8.11,3.43,9.65,9.25,9.5,17.5Z"/>
          </g>
          <path class="cls-11" d="M214.42,30.29c-1.73,5.8-5.76,11.18-8.5,16.5h-11.5c4.52-4.8,9.2-9.5,13.5-14.5,2.29-.27,4.24-1.63,6.5-2Z"/>
          <path class="cls-4" d="M110.93,27.95c-2.05,4.78-2.51,9.97-3.5,15-3.53-2.83-5.41-9.69-6.5-14,.04-.4.34-.56.5-1,3.17,0,6.33,0,9.5,0Z"/>
          <path class="cls-9" d="M133.92,8.45c-3.82,8.27-3.75,20.14-8.25,19-2.94-.75,3.51-15.77,3.25-19,1.72,0,3.25-.05,5,0Z"/>
          <path class="cls-12" d="M108.93,48.45c-1.36,8.17-2.73,16.31-4,24.5-2.6,16.79-5.5,33.56-7,50.5-.56,1.05-.69,1.63-2,2,1.67-11.45,1.84-23.67,3.5-35.25,2.06-14.36,4.37-28.98,7-43.25,2.96-1.06,1.3.07,2.5,1.5Z"/>
          <path class="cls-7" d="M111.93,28.45c-.83,6.68-1.9,13.36-3,20-1.2-1.43.46-2.56-2.5-1.5.25-1.34.74-2.66,1-4,.99-5.03,1.45-10.22,3.5-15,1.32,0,.94.5,1,.5Z"/>
          <path class="cls-3" d="M123.92,28.45c-2.46,15.95-5.48,31.74-9,47.5-2.51.73-7.15-1.84-10-3,1.27-8.19,2.64-16.33,4-24.5,1.1-6.64,2.17-13.32,3-20,4.01,0,7.98-.01,12,0Z"/>
          <path class="cls-10" d="M114.93,75.95c-2.28,10.2-5.07,20.33-7.5,30.5-3.65,4.59-6.51,11.4-9.5,17,1.5-16.94,4.4-33.71,7-50.5,2.85,1.16,7.48,3.73,10,3Z"/>
        </g>
      </g>
    </g>
  </g>
</svg>